<?xml version="1.0" encoding="UTF-8" standalone="no"?>
<!-- Created with Inkscape (http://www.inkscape.org/) -->

<svg
   xmlns:dc="http://purl.org/dc/elements/1.1/"
   xmlns:cc="http://creativecommons.org/ns#"
   xmlns:rdf="http://www.w3.org/1999/02/22-rdf-syntax-ns#"
   xmlns:svg="http://www.w3.org/2000/svg"
   xmlns="http://www.w3.org/2000/svg"
   xmlns:sodipodi="http://sodipodi.sourceforge.net/DTD/sodipodi-0.dtd"
   xmlns:inkscape="http://www.inkscape.org/namespaces/inkscape"
   width="744.09448819"
   height="1052.3622047"
   id="svg2"
   version="1.1"
   inkscape:version="0.48.3.1 r9886"
   sodipodi:docname="transmitter-modules.eps">
  <sodipodi:namedview
     id="base"
     pagecolor="#ffffff"
     bordercolor="#666666"
     borderopacity="1.0"
     inkscape:pageopacity="0.0"
     inkscape:pageshadow="2"
     inkscape:zoom="0.7"
     inkscape:cx="466.40272"
     inkscape:cy="697.21059"
     inkscape:document-units="px"
     inkscape:current-layer="layer1"
     showgrid="false"
     inkscape:window-width="1366"
     inkscape:window-height="744"
     inkscape:window-x="0"
     inkscape:window-y="24"
     inkscape:window-maximized="1" />
  <defs
     id="defs4">
    <marker
       style="overflow:visible;"
       id="Arrow1Lend"
       refX="0.0"
       refY="0.0"
       orient="auto"
       inkscape:stockid="Arrow1Lend">
      <path
         transform="scale(0.8) rotate(180) translate(12.5,0)"
         style="fill-rule:evenodd;stroke:#000000;stroke-width:1.0pt;"
         d="M 0.0,0.0 L 5.0,-5.0 L -12.5,0.0 L 5.0,5.0 L 0.0,0.0 z "
         id="path3831" />
    </marker>
    <marker
       style="overflow:visible;"
       id="Arrow2Lend"
       refX="0.0"
       refY="0.0"
       orient="auto"
       inkscape:stockid="Arrow2Lend">
      <path
         transform="scale(1.1) rotate(180) translate(1,0)"
         d="M 8.7185878,4.0337352 L -2.2072895,0.016013256 L 8.7185884,-4.0017078 C 6.9730900,-1.6296469 6.9831476,1.6157441 8.7185878,4.0337352 z "
         style="fill-rule:evenodd;stroke-width:0.62500000;stroke-linejoin:round;"
         id="path3849" />
    </marker>
    <marker
       style="overflow:visible;"
       id="Arrow1Mend"
       refX="0.0"
       refY="0.0"
       orient="auto"
       inkscape:stockid="Arrow1Mend">
      <path
         transform="scale(0.4) rotate(180) translate(10,0)"
         style="fill-rule:evenodd;stroke:#000000;stroke-width:1.0pt;"
         d="M 0.0,0.0 L 5.0,-5.0 L -12.5,0.0 L 5.0,5.0 L 0.0,0.0 z "
         id="path3837" />
    </marker>
  </defs>
  <metadata
     id="metadata7">
    <rdf:RDF>
      <cc:Work
         rdf:about="">
        <dc:format>image/svg+xml</dc:format>
        <dc:type
           rdf:resource="http://purl.org/dc/dcmitype/StillImage" />
        <dc:title></dc:title>
      </cc:Work>
    </rdf:RDF>
  </metadata>
  <g
     id="layer1"
     inkscape:groupmode="layer"
     inkscape:label="Layer 1">
    <rect
       y="356.41614"
       x="34.625366"
       height="43.978794"
       width="103.92622"
       id="rect2989"
       style="fill:#ffffff;fill-opacity:1;fill-rule:nonzero;stroke:#000000;stroke-width:2;stroke-miterlimit:4;stroke-opacity:1;stroke-dasharray:none" />
    <text
       sodipodi:linespacing="125%"
       id="text2985"
       y="386.93362"
       x="42.285713"
       style="font-size:25px;font-style:normal;font-variant:normal;font-weight:normal;font-stretch:normal;line-height:125%;letter-spacing:0px;word-spacing:0px;fill:#000000;fill-opacity:1;stroke:none;font-family:Droid Sans;-inkscape-font-specification:Droid Sans"
       xml:space="preserve"><tspan
         y="386.93362"
         x="42.285713"
         id="tspan2987"
         sodipodi:role="line">Mapper</tspan></text>
    <text
       sodipodi:linespacing="125%"
       id="text3762"
       y="370.07651"
       x="-36.285713"
       style="font-size:25px;font-style:normal;font-variant:normal;font-weight:normal;font-stretch:normal;line-height:125%;letter-spacing:0px;word-spacing:0px;fill:#000000;fill-opacity:1;stroke:none;font-family:Droid Sans;-inkscape-font-specification:Droid Sans"
       xml:space="preserve"><tspan
         id="tspan3770"
         y="370.07651"
         x="-36.285713"
         sodipodi:role="line">Bits</tspan></text>
    <rect
       ry="0"
       y="343.79077"
       x="274.57141"
       height="71.428528"
       width="141.42857"
       id="rect3782"
       style="fill:#ffffff;fill-opacity:1;fill-rule:nonzero;stroke:#000000;stroke-width:2;stroke-miterlimit:4;stroke-opacity:1;stroke-dasharray:none" />
    <text
       sodipodi:linespacing="125%"
       id="text3776"
       y="372.36218"
       x="344.14819"
       style="font-size:25px;font-style:normal;font-variant:normal;font-weight:normal;font-stretch:normal;text-align:center;line-height:125%;letter-spacing:0px;word-spacing:0px;text-anchor:middle;fill:#000000;fill-opacity:1;stroke:none;font-family:Droid Sans;-inkscape-font-specification:Droid Sans"
       xml:space="preserve"><tspan
         y="372.36218"
         x="344.14819"
         id="tspan3778"
         sodipodi:role="line">OFDM</tspan><tspan
         id="tspan3780"
         y="403.61218"
         x="344.14819"
         sodipodi:role="line">Modulator</tspan></text>
    <text
       sodipodi:linespacing="125%"
       id="text3784"
       y="368.36218"
       x="147.71429"
       style="font-size:25px;font-style:normal;font-variant:normal;font-weight:normal;font-stretch:normal;line-height:125%;letter-spacing:0px;word-spacing:0px;fill:#000000;fill-opacity:1;stroke:none;font-family:Droid Sans;-inkscape-font-specification:Droid Sans"
       xml:space="preserve"><tspan
         y="368.36218"
         x="147.71429"
         id="tspan3786"
         sodipodi:role="line">Constln.</tspan></text>
    <text
       sodipodi:linespacing="125%"
       id="text3788"
       y="402.64813"
       x="149.14287"
       style="font-size:25px;font-style:normal;font-variant:normal;font-weight:normal;font-stretch:normal;line-height:125%;letter-spacing:0px;word-spacing:0px;fill:#000000;fill-opacity:1;stroke:none;font-family:Droid Sans;-inkscape-font-specification:Droid Sans"
       xml:space="preserve"><tspan
         y="402.64813"
         x="149.14287"
         id="tspan3790"
         sodipodi:role="line">symbols</tspan></text>
    <text
       sodipodi:linespacing="125%"
       id="text3792"
       y="366.93359"
       x="427.14288"
       style="font-size:25px;font-style:normal;font-variant:normal;font-weight:normal;font-stretch:normal;line-height:125%;letter-spacing:0px;word-spacing:0px;fill:#000000;fill-opacity:1;stroke:none;font-family:Droid Sans;-inkscape-font-specification:Droid Sans"
       xml:space="preserve"><tspan
         y="366.93359"
         x="427.14288"
         id="tspan3794"
         sodipodi:role="line">Packets</tspan></text>
    <rect
       ry="0"
       y="345.50507"
       x="541"
       height="69.999954"
       width="150.00002"
       id="rect3782-1"
       style="fill:#ffffff;fill-opacity:1;fill-rule:nonzero;stroke:#000000;stroke-width:2;stroke-miterlimit:4;stroke-opacity:1;stroke-dasharray:none" />
    <text
       sodipodi:linespacing="125%"
       id="text3796"
       y="373.21933"
       x="615.46399"
       style="font-size:25px;font-style:normal;font-variant:normal;font-weight:normal;font-stretch:normal;text-align:center;line-height:125%;letter-spacing:0px;word-spacing:0px;text-anchor:middle;fill:#000000;fill-opacity:1;stroke:none;font-family:Droid Sans;-inkscape-font-specification:Droid Sans"
       xml:space="preserve"><tspan
         y="373.21933"
         x="615.46399"
         id="tspan3798"
         sodipodi:role="line">USRP</tspan><tspan
         id="tspan3800"
         y="404.46933"
         x="615.46399"
         sodipodi:role="line">Transmitter</tspan></text>
    <path
       inkscape:connector-curvature="0"
       id="path3822"
       d="m 415.71429,378.07647 124.28571,0"
       style="fill:none;stroke:#000000;stroke-width:2;stroke-linecap:butt;stroke-linejoin:miter;stroke-opacity:1;stroke-miterlimit:4;stroke-dasharray:none;marker-end:url(#Arrow2Lend)" />
    <path
       inkscape:connector-curvature="0"
       id="path4644"
       d="m 137.14286,378.07647 134.28571,0"
       style="fill:none;stroke:#000000;stroke-width:2;stroke-linecap:butt;stroke-linejoin:miter;stroke-miterlimit:4;stroke-opacity:1;stroke-dasharray:none;marker-mid:none;marker-end:url(#Arrow2Lend)" />
    <path
       inkscape:connector-curvature="0"
       id="path5390"
       d="m -44.285714,380.93361 77.142857,0"
       style="fill:none;stroke:#000000;stroke-width:2;stroke-linecap:butt;stroke-linejoin:miter;stroke-opacity:1;stroke-miterlimit:4;stroke-dasharray:none;marker-end:url(#Arrow2Lend)" />
    <path
       inkscape:connector-curvature="0"
       id="path5764"
       d="m 691.42857,378.07647 50,0 0,-60"
       style="fill:none;stroke:#000000;stroke-width:2;stroke-linecap:butt;stroke-linejoin:miter;stroke-opacity:1;stroke-miterlimit:4;stroke-dasharray:none" />
    <path
       transform="translate(131.28571,126)"
       inkscape:transform-center-y="4.6428571"
       d="m 610,193.79076 -8.04166,-13.92857 -8.04167,-13.92857 16.08333,0 16.08333,0 -8.04167,13.92857 z"
       inkscape:randomized="0"
       inkscape:rounded="0"
       inkscape:flatsided="false"
       sodipodi:arg2="2.6179939"
       sodipodi:arg1="1.5707963"
       sodipodi:r2="9.2857141"
       sodipodi:r1="18.571428"
       sodipodi:cy="175.21933"
       sodipodi:cx="610"
       sodipodi:sides="3"
       id="path5766"
       style="fill:#ffffff;fill-opacity:1;fill-rule:nonzero;stroke:#000000;stroke-width:2;stroke-miterlimit:4;stroke-opacity:1;stroke-dasharray:none"
       sodipodi:type="star" />
    <g
       id="g5822"
       transform="translate(467.14286,-70.571426)">
      <g
         word-spacing="normal"
         letter-spacing="normal"
         font-size-adjust="none"
         font-stretch="normal"
         font-weight="normal"
         font-variant="normal"
         font-style="normal"
         stroke-miterlimit="10.433"
         xml:space="preserve"
         transform="matrix(1.0629921,0,0,-1.0629921,-186.02362,789.27165)"
         id="content"
         style="font-style:normal;font-variant:normal;font-weight:normal;font-stretch:normal;letter-spacing:normal;word-spacing:normal;text-anchor:start;fill:none;stroke:#000000;stroke-linecap:butt;stroke-linejoin:miter;stroke-miterlimit:10.43299961;stroke-opacity:1;stroke-dasharray:none;stroke-dashoffset:0"><path
           id="path5825"
           d="m 470.72,396.17 -0.01,1.36 -0.05,1.43 -0.1,1.47 -0.13,1.53 -0.2,1.57 -0.25,1.61 -0.31,1.63 -0.39,1.66 -0.22,0.83 -0.24,0.84 -0.26,0.84 -0.29,0.84 -0.3,0.84 -0.33,0.84 -0.35,0.84 -0.38,0.84 -0.4,0.84 -0.43,0.83 -0.45,0.83 -0.48,0.82 -0.51,0.82 -0.54,0.81 -0.56,0.8 -0.6,0.8 c -0.5,0.59 -3.73,4.39 -4.62,4.39 -0.25,0 -0.61,-0.11 -0.61,-0.5 0,-0.2 0.11,-0.36 0.29,-0.5 2.39,-2.6 5.64,-6.63 7.68,-14.55 1.15,-4.53 1.61,-9.67 1.61,-14.3 0,-5.03 -0.46,-10.12 -1.75,-15 -1.9,-6.98 -4.83,-10.96 -7.38,-13.75 -0.45,-0.45 -0.45,-0.54 -0.45,-0.65 0,-0.39 0.36,-0.5 0.61,-0.5 0.73,0 3.48,3.05 4.07,3.75 5.08,6.01 8.33,14.98 8.33,26.09 z"
           inkscape:connector-curvature="0"
           style="fill:#000000;stroke-width:0" /><path
           id="path5827"
           d="m 499.16,396.28 -0.04,2.69 -0.12,2.71 -0.21,2.71 -0.3,2.71 -0.4,2.7 -0.5,2.69 -0.61,2.67 -0.71,2.63 -0.83,2.6 -0.46,1.29 -0.49,1.27 -0.52,1.26 -0.55,1.25 -0.59,1.23 -0.62,1.22 -0.65,1.2 -0.68,1.18 -0.72,1.17 -0.76,1.14 -0.79,1.13 -0.83,1.11 -0.86,1.08 -0.9,1.06 c -0.7,0.8 -2.55,2.74 -3.73,3.79 -0.36,0.31 -0.46,0.31 -1.11,0.31 -0.5,0 -0.94,0 -0.94,-0.5 0,-0.2 0.2,-0.41 0.3,-0.5 1.68,-1.75 4.39,-4.49 7.46,-9.97 5.39,-9.56 7.38,-21.88 7.38,-33.83 0,-21.62 -5.99,-34.83 -14.94,-43.94 -0.11,-0.11 -0.2,-0.25 -0.2,-0.4 0,-0.5 0.44,-0.5 0.94,-0.5 0.65,0 0.75,0 1.2,0.4 4.73,4.08 10.06,11 13.5,21.52 2.19,6.83 3.28,14.91 3.28,22.92 z"
           inkscape:connector-curvature="0"
           style="fill:#000000;stroke-width:0" /><path
           id="path5829"
           d="m 534.45,396.16 -0.05,3.68 -0.17,3.66 -0.28,3.66 -0.4,3.64 -0.53,3.61 -0.66,3.58 -0.79,3.54 -0.94,3.49 -1.09,3.44 -0.6,1.7 -0.64,1.68 -0.68,1.66 -0.72,1.64 -0.76,1.63 -0.81,1.6 -0.84,1.58 -0.89,1.56 -0.93,1.54 -0.98,1.52 -1.02,1.49 -1.07,1.46 -1.11,1.44 -1.17,1.41 c -1,1.15 -2.89,3.18 -4.93,4.98 -0.6,0.61 -0.71,0.61 -1.39,0.61 -0.61,0 -1.05,0 -1.05,-0.5 0,-0.2 0.19,-0.41 0.3,-0.5 1.73,-1.8 5.07,-5.14 8.42,-10.51 8.01,-12.86 11.65,-29.05 11.65,-48.24 0,-13.39 -1.79,-30.69 -10.01,-45.53 -3.94,-7.08 -8.08,-11.2 -10.17,-13.3 -0.1,-0.15 -0.19,-0.29 -0.19,-0.45 0,-0.5 0.44,-0.5 1.05,-0.5 0.68,0 0.79,0 1.53,0.75 16.7,15.2 21.92,38.02 21.92,58.98 z"
           inkscape:connector-curvature="0"
           style="fill:#000000;stroke-width:0" /></g>    </g>
  </g>
</svg>
